<?xml version="1.0" encoding="utf-8"?>
<!-- Generator: Adobe Illustrator 21.0.2, SVG Export Plug-In . SVG Version: 6.00 Build 0)  -->
<svg version="1.1" id="logo" xmlns="http://www.w3.org/2000/svg" xmlns:xlink="http://www.w3.org/1999/xlink" x="0px" y="0px"
	 viewBox="0 0 400 400" style="enable-background:new 0 0 400 400;" xml:space="preserve">
<style type="text/css">
	.st0{fill:#EEBA05;}
	.st1{fill:#333333;}
</style>
<rect x="88" y="99" class="st0" width="196" height="223"/>
<g>
	<path d="M126.9,281.7v2.9h-6.6V297h-3.2v-28.7h11.4v2.9h-8.2v10.5H126.9z"/>
	<path d="M134.3,268.3V297h-3.2v-28.7H134.3z"/>
	<path d="M141.7,297v-25.8h-5.3v-2.9h13.8v2.9h-5.3V297H141.7z"/>
	<path d="M155.3,297h-2.9v-28.7h4.1l6.6,20.7v-20.7h2.8V297h-3.3l-7.3-23.2V297z"/>
	<path d="M179.4,281v2.9h-7v10.2h8.6v2.9h-11.8v-28.7H181v2.9h-8.6v9.8H179.4z"/>
	<path d="M190,268.1c2.2,0,3.8,0.6,4.8,1.9c1,1.3,1.6,3,1.6,5.2v0.8h-3v-0.9c0-1.3-0.3-2.3-0.8-3c-0.5-0.7-1.4-1.1-2.5-1.1
		s-2,0.4-2.5,1.1c-0.5,0.7-0.8,1.7-0.8,3c0,1.1,0.2,2,0.7,2.8c0.5,0.8,1.1,1.5,1.8,2.2c0.7,0.7,1.5,1.3,2.3,2
		c0.8,0.6,1.6,1.3,2.3,2.1c0.7,0.8,1.3,1.6,1.8,2.6c0.5,1,0.7,2.1,0.7,3.5c0,2.2-0.5,3.9-1.6,5.2c-1.1,1.3-2.7,1.9-4.9,1.9
		s-3.8-0.6-4.9-1.9c-1-1.3-1.6-3-1.6-5.2v-1.6h3v1.8c0,1.3,0.3,2.3,0.8,3c0.5,0.7,1.4,1.1,2.5,1.1s2-0.4,2.5-1.1
		c0.5-0.7,0.8-1.7,0.8-3c0-1.1-0.2-2-0.7-2.8c-0.5-0.8-1.1-1.5-1.8-2.2c-0.7-0.7-1.5-1.3-2.3-2c-0.8-0.6-1.6-1.3-2.3-2.1
		c-0.7-0.8-1.3-1.6-1.8-2.6c-0.5-1-0.7-2.1-0.7-3.5c0-2.2,0.5-4,1.6-5.2C186.2,268.7,187.8,268.1,190,268.1z"/>
	<path d="M205.2,268.1c2.2,0,3.8,0.6,4.8,1.9c1,1.3,1.6,3,1.6,5.2v0.8h-3v-0.9c0-1.3-0.3-2.3-0.8-3c-0.5-0.7-1.4-1.1-2.5-1.1
		c-1.1,0-2,0.4-2.5,1.1c-0.5,0.7-0.8,1.7-0.8,3c0,1.1,0.2,2,0.7,2.8c0.5,0.8,1.1,1.5,1.8,2.2s1.5,1.3,2.3,2s1.6,1.3,2.3,2.1
		s1.3,1.6,1.8,2.6s0.7,2.1,0.7,3.5c0,2.2-0.5,3.9-1.6,5.2c-1.1,1.3-2.7,1.9-4.9,1.9c-2.2,0-3.8-0.6-4.9-1.9c-1-1.3-1.6-3-1.6-5.2
		v-1.6h3v1.8c0,1.3,0.3,2.3,0.8,3s1.4,1.1,2.5,1.1c1.1,0,2-0.4,2.5-1.1s0.8-1.7,0.8-3c0-1.1-0.2-2-0.7-2.8c-0.5-0.8-1.1-1.5-1.8-2.2
		c-0.7-0.7-1.5-1.3-2.3-2c-0.8-0.6-1.6-1.3-2.3-2.1c-0.7-0.8-1.3-1.6-1.8-2.6c-0.5-1-0.7-2.1-0.7-3.5c0-2.2,0.5-4,1.6-5.2
		C201.5,268.7,203.1,268.1,205.2,268.1z"/>
	<path class="st1" d="M220.1,268.3c1.1,0,2,0.2,2.8,0.5c0.8,0.3,1.4,0.8,1.8,1.4s0.8,1.3,1,2.2c0.2,0.8,0.3,1.8,0.3,2.8v2.9
		c0,2.3-0.5,4-1.6,5.1c-1.1,1.1-2.7,1.6-5,1.6h-4.1V297h-0.9v-28.7H220.1z M219.5,284c2,0,3.5-0.5,4.4-1.4c0.9-0.9,1.3-2.4,1.3-4.4
		v-3c0-0.9-0.1-1.7-0.2-2.4s-0.4-1.4-0.8-1.9c-0.4-0.5-0.9-0.9-1.6-1.3c-0.6-0.3-1.4-0.5-2.4-0.5h-4.8V284H219.5z"/>
	<path class="st1" d="M234.9,268.3c2.1,0,3.6,0.6,4.6,1.7c0.9,1.2,1.4,2.7,1.4,4.7v2.6c0,1.8-0.4,3.2-1.1,4.1s-1.9,1.6-3.5,1.9
		c1.6,0.2,2.8,0.9,3.5,1.9s1.1,2.3,1.1,3.9v4.5c0,0.5,0,1.1,0.1,1.8c0.1,0.6,0.3,1.2,0.6,1.6h-1c-0.3-0.5-0.5-1-0.6-1.6
		s-0.1-1.2-0.1-1.8v-4.5c0-1.1-0.2-1.9-0.5-2.6c-0.3-0.7-0.7-1.2-1.3-1.6c-0.6-0.4-1.2-0.7-2-0.8c-0.8-0.2-1.6-0.2-2.5-0.2h-3.5V297
		h-0.9v-28.7H234.9z M233.7,282.9c1,0,1.9-0.1,2.6-0.2c0.8-0.1,1.4-0.4,2-0.8s0.9-1,1.2-1.7s0.4-1.6,0.4-2.7v-2.6
		c0-1.7-0.4-3.1-1.1-4.1c-0.8-1-2.1-1.5-3.9-1.5h-4.8v13.7H233.7z"/>
	<path class="st1" d="M244.8,275.4c0-1,0.1-2,0.3-2.8s0.6-1.6,1.1-2.3c0.5-0.7,1.1-1.2,1.9-1.6c0.8-0.4,1.7-0.6,2.8-0.6
		c1.1,0,2,0.2,2.8,0.6s1.4,0.9,1.9,1.6c0.5,0.7,0.9,1.4,1.1,2.3c0.2,0.9,0.3,1.8,0.3,2.8V290c0,1-0.1,2-0.3,2.8
		c-0.2,0.9-0.6,1.6-1.1,2.3c-0.5,0.7-1.1,1.2-1.9,1.6c-0.8,0.4-1.7,0.6-2.8,0.6c-1.1,0-2-0.2-2.8-0.6c-0.8-0.4-1.4-0.9-1.9-1.6
		c-0.5-0.7-0.8-1.4-1.1-2.3s-0.3-1.8-0.3-2.8V275.4z M245.7,290c0,0.9,0.1,1.7,0.3,2.5c0.2,0.8,0.5,1.5,0.9,2c0.4,0.6,0.9,1,1.6,1.4
		s1.5,0.5,2.4,0.5c1,0,1.8-0.2,2.4-0.5s1.2-0.8,1.6-1.4c0.4-0.6,0.7-1.3,0.9-2c0.2-0.8,0.3-1.6,0.3-2.5v-14.7c0-0.9-0.1-1.7-0.3-2.5
		c-0.2-0.8-0.5-1.5-0.9-2c-0.4-0.6-0.9-1-1.6-1.4s-1.5-0.5-2.4-0.5c-1,0-1.8,0.2-2.4,0.5s-1.2,0.8-1.6,1.4c-0.4,0.6-0.7,1.3-0.9,2
		c-0.2,0.8-0.3,1.6-0.3,2.5V290z"/>
</g>
<path d="M140.1,145.9c-1.2,8.1,1.9,14.4,6.7,19.8c2.3,2.6,4.8,5,7.7,6.9c12.6,8.5,23.7,18.2,29.7,33c2.7-17.4,9.1-32.3,24.6-41.8
	c11.3-6.9,28.2-10.2,40.8-7.8c-0.7,5.3-1,10.8-2.1,16.1c-5.3,23.7-18.8,42.7-35.5,59.6c-7,7.1-14.9,13.3-22.6,19.7
	c-1.3,1.1-4.5,1.5-5.8,0.6c-19.6-13.8-37.6-29.4-50.6-49.9c-9.3-14.6-14.8-30.3-12.8-48c0.8-7.4,3-14.1,8.9-19.3
	c5.9-5.2,11.4-10.9,16.7-16.7c3.2-3.5,6.3-3.6,9.5-1.1c2.8,2.2,5.4,4.9,7.7,7.6c0.9,1,1.3,2.9,1.1,4.2
	C162.4,138.4,149.9,147.4,140.1,145.9z"/>
</svg>
